# xmcd CD database file
#
# Track frame offsets:
#	182
#	12772
#	25157
#	35097
#	45995
#	56757
#	67970
#	79857
#	91677
#	99247
#	108915
#	120067
#	131225
#	143360
#
# Disc length: 2026 seconds
#
# Revision: 0
# Processed by: cddbd v1.4PL0 Copyright (c) Steve Scherf et al.
# Submitted via: CDex 1.40Release
#
DISCID=a007e80e
DTITLE=Johnny Cash - The Great Johnny Cash
DYEAR=1995
DGENRE=Country
TTITLE0=Folsom Prison Blues
TTITLE1=I Walk The Line
TTITLE2=Ballad Of A Teenage Queen
TTITLE3=Cry, Cry, Cry
TTITLE4=Train Of Love
TTITLE5=Don't Make Me Go
TTITLE6=Home Of The Blues
TTITLE7=So Doggone Lonesome
TTITLE8=Come In Stranger
TTITLE9=It's Just About Time
TTITLE10=Oh Lonesome Me
TTITLE11=Mean Eyed Cat
TTITLE12=Give My Love To Rose
TTITLE13=Katy Too
EXTD=YEAR: 1995 ID3G: 2
EXTT0=
EXTT1=
EXTT2=
EXTT3=
EXTT4=
EXTT5=
EXTT6=
EXTT7=
EXTT8=
EXTT9=
EXTT10=
EXTT11=
EXTT12=
EXTT13=
PLAYORDER=
